# xmcd CD database generated by RipIT
#
# Track frame offsets:
# 150
# 13994
# 28049
# 39494
# 53499
# 66455
# 79950
# 92127
# 105407
# 118654
# 131511
# 142615
# 155341
# 169188
# 182925
# 196539
# 209712
# 221358
# 232378
# 246126
#
# Disc length: 3456 seconds
#
# Revision: 0
# Processed by: cddbd v1.5.2PL0 Copyright (c) Steve Scherf et al.
# Submitted via: RipIT 3.8.0 www.suwald.com/ripit/ripit.html on 2011-01-04 at 03:05
#
DISCID=1b0d7e14
DTITLE=B. B. King - Original Greatest Hits
DYEAR=1900
DGENRE=blues
TTITLE0=3 O'Clock Blues
TTITLE1=Blind Love
TTITLE2=She's Dynamite
TTITLE3=You Know I Love You
TTITLE4=Please Love Me
TTITLE5=Story From My Heart And Soul
TTITLE6=The Woman I Love
TTITLE7=Neighbourhood Affair
TTITLE8=When My Heart Beats Like A Hammer
TTITLE9=Every Day I Have The Blues
TTITLE10=Love You Baby (aka Take A Swing With Me)
TTITLE11=Ten Long Years
TTITLE12=You Upset Me, Baby
TTITLE13=Boogie Rock (aka House Rocker)
TTITLE14=Crying Won't Help You
TTITLE15=Bad Luck
TTITLE16=Did You Ever Love A Woman
TTITLE17=You Don't Know
TTITLE18=Sweet Little Angel
TTITLE19=On My Word Of Honour
EXTD=
EXTT0=
EXTT1=
EXTT2=
EXTT3=
EXTT4=
EXTT5=
EXTT6=
EXTT7=
EXTT8=
EXTT9=
EXTT10=
EXTT11=
EXTT12=
EXTT13=
EXTT14=
EXTT15=
EXTT16=
EXTT17=
EXTT18=
EXTT19=
PLAYORDER=
